<svg xmlns="http://www.w3.org/2000/svg" viewBox="0 0 32 32">
  <style>
  <!-- styled colors synced from style sheet via class names using make -C maint all-sync-svg-colors -->
    /* Default: dark mode */
    .bg           { fill: #000000; }
    .text-meta           { fill: ##6b6460; }
    .accent-bright { fill: #0000ff; }

    @media (prefers-color-scheme: light) {
      .bg           { fill: #ffffff; }
      .text-meta         { fill: #444444; }
      .accent-bright { fill: #ff7f00; }
    }
  </style>

  <!-- background -->
  <rect width="32" height="32" fill="#000000" class="bg" />
    <!-- * drop shadow -->
    <path
        transform="scale(2.0),translate(4.0,-6.0)"
        d="M9.2548828125 15.18359375Q7.744140625 14.7138671875 6.0810546875 14.4853515625Q6.677734375 13.9521484375 8.2900390625 12.0859375L6.75390625 10.994140625Q6.0048828125 11.9970703125 5.0146484375 13.7236328125Q4.087890625 11.958984375 3.3515625 10.994140625L1.8662109375 12.0859375Q3.732421875 14.3203125 3.9736328125 14.4853515625Q2.1328125 14.853515625 0.86328125 15.18359375L1.4599609375 16.9990234375Q3.7705078125 16.1484375 4.392578125 15.7548828125Q4.138671875 17.951171875 4.138671875 18.9287109375L5.9541015625 18.9287109375Q5.9541015625 17.7607421875 5.7255859375 16.072265625Q5.662109375 15.9833984375 5.662109375 15.7802734375Q6.8681640625 16.376953125 8.658203125 16.9990234375L9.2548828125 15.18359375Z"
        fill="#6b6460"
        class="text-meta"
    />
    <!-- * foreground -->
    <path
        transform="scale(2.0),translate(3.0,-7.0)"
        d="M9.2548828125 15.18359375Q7.744140625 14.7138671875 6.0810546875 14.4853515625Q6.677734375 13.9521484375 8.2900390625 12.0859375L6.75390625 10.994140625Q6.0048828125 11.9970703125 5.0146484375 13.7236328125Q4.087890625 11.958984375 3.3515625 10.994140625L1.8662109375 12.0859375Q3.732421875 14.3203125 3.9736328125 14.4853515625Q2.1328125 14.853515625 0.86328125 15.18359375L1.4599609375 16.9990234375Q3.7705078125 16.1484375 4.392578125 15.7548828125Q4.138671875 17.951171875 4.138671875 18.9287109375L5.9541015625 18.9287109375Q5.9541015625 17.7607421875 5.7255859375 16.072265625Q5.662109375 15.9833984375 5.662109375 15.7802734375Q6.8681640625 16.376953125 8.658203125 16.9990234375L9.2548828125 15.18359375Z"
        fill="#0000ff"
        class="accent-bright"
    />
</svg>
